#!OML:ASF I:\golf\golf\golf 2\Subject 1\2002-09-07\Subject1.ASF
:FULLY-SPECIFIED
:DEGREES
89
root 1.40185 17.9494 -9.0349 9.35325 -5.33115 -6.83068
lowerback -5.85364 0.958345 -1.90978
upperback 0.449247 1.25478 4.29293
thorax 3.61573 0.545978 5.65975
lowerneck -15.1372 0.666845 1.13188
upperneck 41.2714 3.27007 -6.15017
head 18.1059 0.626158 -2.46795
rclavicle 2.51711e-014 1.74931e-014
rhumerus -28.5317 -0.852046 -83.8611
rradius 26.1384
rwrist -7.01766
rhand -19.8048 9.92808
rfingers 7.12502
rthumb 6.52827 -19.9513
lclavicle 2.51711e-014 1.74931e-014
lhumerus -26.8656 -1.82891 90.691
lradius 23.99
lwrist -0.113396
lhand -8.22871 31.717
lfingers 7.12502
lthumb 17.6888 60.9324
rfemur -17.2707 0.00790206 23.9228
rtibia 29.2769
rfoot -14.559 -7.2329
rtoes 0.330378
lfemur -16.1654 3.41584 -15.5465
ltibia 32.0864
lfoot -19.2374 7.36751
ltoes -6.49884
90
root 1.41479 17.9489 -9.03845 9.38356 -5.26327 -6.99108
lowerback -5.73702 0.968758 -1.87276
upperback 0.490874 1.26044 4.42944
thorax 3.59071 0.548054 5.78119
lowerneck -15.2268 0.670501 0.986834
upperneck 41.3489 3.35067 -6.18318
head 18.1822 0.629979 -2.44617
rclavicle -8.34896e-015 -2.50469e-014
rhumerus -28.4902 -0.633556 -83.7681
rradius 26.2258
rwrist -7.15112
rhand -19.8612 9.77714
rfingers 7.12502
rthumb 6.47385 -20.1039
lclavicle -8.34896e-015 -2.50469e-014
lhumerus -26.8654 -1.83239 90.8631
lradius 23.9092
lwrist 0.291483
lhand -8.81068 31.4381
lfingers 7.12502
lthumb 17.1287 60.703
rfemur -17.3581 0.0387122 24.068
rtibia 29.391
rfoot -14.5726 -7.32578
rtoes 0.174616
lfemur -16.2212 3.31132 -15.3889
ltibia 32.0933
lfoot -19.2179 7.30199
ltoes -5.94891
91
root 1.42406 17.9477 -9.04061 9.36449 -5.18162 -7.06878
lowerback -5.6767 0.975276 -2.00708
upperback 0.583679 1.27152 4.56488
thorax 3.64659 0.546646 6.00362
lowerneck -15.3139 0.62582 0.893953
upperneck 41.3922 3.37619 -6.31259
head 18.2381 0.607062 -2.48875
rclavicle -8.05078e-015 -4.96962e-014
rhumerus -28.3832 -0.439906 -83.6574
rradius 26.2544
rwrist -7.34837
rhand -19.9339 9.93269
rfingers 7.12502
rthumb 6.40362 -19.9505
lclavicle -8.05078e-015 -4.96962e-014
lhumerus -26.8829 -1.88565 91.0372
lradius 24.0369
lwrist 0.359856
lhand -8.93628 31.7814
lfingers 7.12502
lthumb 17.0078 61.0568
rfemur -17.3779 0.0653253 24.1371
rtibia 29.4838
rfoot -14.5925 -7.42928
rtoes 0.0668666
lfemur -16.2305 3.19833 -15.3015
ltibia 32.1315
lfoot -19.3192 7.17643
ltoes -5.21058
92
root 1.43419 17.9446 -9.04171 9.32811 -5.18203 -6.96989
lowerback -5.52263 0.993989 -2.18324
upperback 0.603134 1.30967 4.53843
thorax 3.57228 0.564003 6.07542
lowerneck -15.2791 0.604954 0.891713
upperneck 41.4085 3.36942 -6.36629
head 18.24 0.597414 -2.51575
rclavicle -2.36554e-014 -2.00773e-014
rhumerus -28.3931 -0.421874 -83.6657
rradius 26.2413
rwrist -7.27768
rhand -19.8284 10.2506
rfingers 7.12502
rthumb 6.50547 -19.6295
lclavicle -2.36554e-014 -2.00773e-014
lhumerus -26.9857 -1.87489 90.9881
lradius 24.2335
lwrist -0.0151855
lhand -8.37726 32.3636
lfingers 7.12502
lthumb 17.5458 61.5918
rfemur -17.3898 0.0279249 23.9913
rtibia 29.567
rfoot -14.5385 -7.49018
rtoes -1.01865
lfemur -16.2301 3.14372 -15.4482
ltibia 32.1973
lfoot -19.4308 7.1622
ltoes -4.95114
93
root 1.44914 17.9433 -9.04561 9.37842 -5.18413 -6.96261
lowerback -5.28385 1.02091 -2.09929
upperback 0.505804 1.34611 4.44513
thorax 3.33583 0.592335 5.92072
lowerneck -15.1147 0.633579 0.938813
upperneck 41.424 3.37408 -6.31295
head 18.2031 0.61643 -2.49737
rclavicle -8.27441e-015 -2.3059e-014
rhumerus -28.5216 -0.36994 -83.8078
rradius 26.2422
rwrist -7.25025
rhand -19.6667 10.3385
rfingers 7.12502
rthumb 6.66162 -19.5367
lclavicle -8.27441e-015 -2.3059e-014
lhumerus -27.2112 -2.05506 90.873
lradius 24.3476
lwrist 0.169246
lhand -8.24144 32.4802
lfingers 7.12502
lthumb 17.6765 61.6967
rfemur -17.5241 -0.0950107 23.9258
rtibia 29.6769
rfoot -14.5193 -7.40453
rtoes -1.63277
lfemur -16.3373 3.07569 -15.5273
ltibia 32.2567
lfoot -19.4169 7.24804
ltoes -4.9147
94
root 1.46775 17.9436 -9.05223 9.53691 -5.21591 -7.04142
lowerback -5.15611 1.09368 -1.85994
upperback 0.442538 1.43377 4.33252
thorax 3.19605 0.645799 5.66493
lowerneck -15.0944 0.675427 1.08482
upperneck 41.43 3.37318 -6.27372
head 18.2013 0.645546 -2.50555
rclavicle -8.4732e-015 8.54774e-015
rhumerus -28.5687 -0.294888 -83.998
rradius 26.3275
rwrist -7.41027
rhand -19.6677 10.1398
rfingers 7.12502
rthumb 6.66065 -19.7354
lclavicle -8.4732e-015 8.54774e-015
lhumerus -27.2472 -2.13597 90.7248
lradius 24.2794
lwrist 0.329237
lhand -8.48093 32.2133
lfingers 7.12502
lthumb 17.446 61.4505
rfemur -17.8179 -0.231851 23.9466
rtibia 29.8137
rfoot -14.5293 -7.19401
rtoes -1.30897
lfemur -16.5797 3.12729 -15.5269
ltibia 32.3125
lfoot -19.3716 7.23566
ltoes -4.91041
95
root 1.48043 17.9409 -9.05221 9.44509 -5.07908 -6.97735
lowerback -5.05374 1.12658 -1.88875
upperback 0.566327 1.47984 4.24257
thorax 3.2632 0.665569 5.58942
lowerneck -15.155 0.668294 1.27776
upperneck 41.3999 3.31826 -6.32781
head 18.2003 0.647495 -2.5758
rclavicle 1.0138e-014 2.08724e-014
rhumerus -28.4549 -0.39014 -84.0771
rradius 26.3891
rwrist -7.41363
rhand -19.7312 10.0672
rfingers 7.12502
rthumb 6.5993 -19.81
lclavicle 1.0138e-014 2.08724e-014
lhumerus -27.1013 -2.18728 90.6237
lradius 24.2607
lwrist -0.0675466
lhand -8.21106 32.0893
lfingers 7.12502
lthumb 17.7057 61.3031
rfemur -17.8047 -0.355584 23.8629
rtibia 29.9618
rfoot -14.5408 -7.28148
rtoes -1.69118
lfemur -16.5541 3.23073 -15.6103
ltibia 32.375
lfoot -19.4115 6.98769
ltoes -5.06377
96
root 1.49366 17.9394 -9.05354 9.43412 -5.02945 -6.93287
lowerback -5.08275 1.17327 -2.01168
upperback 0.651108 1.54798 4.24717
thorax 3.35686 0.69381 5.67282
lowerneck -15.02 0.604624 1.28754
upperneck 41.317 3.2384 -6.39197
head 18.1101 0.61188 -2.61722
rclavicle -8.02593e-015 -3.16068e-014
rhumerus -28.3538 -0.49861 -83.9918
rradius 26.3809
rwrist -7.27127
rhand -19.7487 10.1122
rfingers 7.12502
rthumb 6.58241 -19.7655
lclavicle -8.02593e-015 -3.16068e-014
lhumerus -27.0831 -2.42255 90.708
lradius 24.3311
lwrist -0.118628
lhand -8.09732 32.2625
lfingers 7.12502
lthumb 17.8152 61.4665
rfemur -17.9145 -0.387232 23.776
rtibia 30.1503
rfoot -14.5721 -7.29563
rtoes -1.16441
lfemur -16.6222 3.2944 -15.7019
ltibia 32.427
lfoot -19.4368 6.92883
ltoes -5.56647
97
root 1.50397 17.9347 -9.05537 9.42534 -4.94402 -6.95405
lowerback -5.03609 1.16078 -2.14024
upperback 0.706162 1.53556 4.32728
thorax 3.38398 0.682819 5.83029
lowerneck -14.9185 0.582316 1.1331
upperneck 41.2804 3.25581 -6.39059
head 18.06 0.596747 -2.58179
rclavicle -3.50358e-015 -3.26007e-014
rhumerus -28.2839 -0.437779 -83.9086
rradius 26.3902
rwrist -7.15953
rhand -19.7651 10.0675
rfingers 7.12502
rthumb 6.56659 -19.8107
lclavicle -3.50358e-015 -3.26007e-014
lhumerus -27.0857 -2.42814 90.805
lradius 24.2703
lwrist 0.249663
lhand -8.64519 32.3177
lfingers 7.12502
lthumb 17.288 61.5688
rfemur -18.0375 -0.351598 23.7648
rtibia 30.4018
rfoot -14.6135 -7.3326
rtoes -0.196005
lfemur -16.6857 3.42318 -15.7035
ltibia 32.4372
lfoot -19.4587 6.77711
ltoes -6.09454
98
root 1.51572 17.9286 -9.05697 9.45992 -4.8885 -6.81874
lowerback -4.984 1.1148 -2.32177
upperback 0.752784 1.48506 4.3063
thorax 3.40511 0.652891 5.90798
lowerneck -14.9103 0.629514 1.03502
upperneck 41.2661 3.35259 -6.36364
head 18.0542 0.623875 -2.53189
rclavicle 1.14053e-014 -6.16232e-015
rhumerus -28.1996 -0.230225 -83.969
rradius 26.4223
rwrist -7.18289
rhand -19.7839 10.1242
rfingers 7.12502
rthumb 6.54848 -19.7546
lclavicle 1.14053e-014 -6.16232e-015
lhumerus -26.9953 -2.16052 90.7181
lradius 24.1622
lwrist 0.315355
lhand -8.85725 32.2454
lfingers 7.12502
lthumb 17.0838 61.5143
rfemur -18.2374 -0.376184 23.5801
rtibia 30.6843
rfoot -14.638 -7.39457
rtoes -0.501696
lfemur -16.7709 3.52607 -15.8836
ltibia 32.4369
lfoot -19.5016 6.5299
ltoes -5.63613
99
root 1.53189 17.9268 -9.05816 9.46742 -4.91844 -6.59101
lowerback -4.86234 1.11546 -2.51268
upperback 0.790155 1.49987 4.21051
thorax 3.37131 0.657686 5.91393
lowerneck -14.9166 0.648168 1.01442
upperneck 41.2773 3.39047 -6.36303
head 18.0651 0.635774 -2.52129
rclavicle -2.38542e-014 -6.75868e-015
rhumerus -28.1411 -0.0560695 -84.0608
rradius 26.4663
rwrist -7.30531
rhand -19.7301 10.1729
rfingers 7.12502
rthumb 6.60042 -19.7043
lclavicle -2.38542e-014 -6.75868e-015
lhumerus -26.8979 -1.92481 90.5771
lradius 24.094
lwrist 0.061587
lhand -8.68511 32.1144
lfingers 7.12502
lthumb 17.2495 61.3688
rfemur -18.4457 -0.560034 23.2786
rtibia 30.9736
rfoot -14.7434 -7.27113
rtoes -0.923139
lfemur -16.8077 3.57941 -16.2017
ltibia 32.4518
lfoot -19.5888 6.366
ltoes -4.91255
100
root 1.54914 17.9268 -9.06179 9.4491 -4.94931 -6.56581
lowerback -4.62927 1.17489 -2.52941
upperback 0.810471 1.5801 4.17304
thorax 3.25181 0.700576 5.88203
lowerneck -14.9282 0.619874 1.04032
upperneck 41.3384 3.35423 -6.38925
head 18.1035 0.621817 -2.54852
rclavicle 8.32411e-015 -2.3059e-014
rhumerus -28.1394 0.0939417 -84.1234
rradius 26.5862
rwrist -7.47929
rhand -19.6747 10.0188
rfingers 7.12502
rthumb 6.6539 -19.8567
lclavicle 8.32411e-015 -2.3059e-014
lhumerus -26.8711 -1.92717 90.5286
lradius 24.0819
lwrist -0.110261
lhand -8.63882 32.0703
lfingers 7.12502
lthumb 17.2941 61.3208
rfemur -18.6321 -0.714827 23.1942
rtibia 31.2736
rfoot -14.8628 -7.05167
rtoes -0.537964
lfemur -16.8215 3.62378 -16.3029
ltibia 32.4889
lfoot -19.5891 6.30929
ltoes -4.65762
101
root 1.56649 17.9229 -9.06882 9.49542 -4.97069 -6.64364
lowerback -4.50535 1.24578 -2.46867
upperback 0.828235 1.67038 4.17751
thorax 3.19104 0.748103 5.85411
lowerneck -14.8656 0.598531 1.0693
upperneck 41.3384 3.31991 -6.40765
head 18.085 0.612061 -2.5682
rclavicle -2.44008e-014 -3.08116e-014
rhumerus -28.106 0.249012 -84.1501
rradius 26.6869
rwrist -7.5556
rhand -19.7087 9.91394
rfingers 7.12502
rthumb 6.621 -19.9626
lclavicle -2.44008e-014 -3.08116e-014
lhumerus -26.8797 -2.14087 90.5623
lradius 24.1236
lwrist -0.0344364
lhand -8.54357 32.2679
lfingers 7.12502
lthumb 17.3858 61.5103
rfemur -18.8944 -0.762823 23.225
rtibia 31.5763
rfoot -14.8855 -6.91107
rtoes 0.227976
lfemur -16.9284 3.64419 -16.2882
ltibia 32.549
lfoot -19.5352 6.31641
ltoes -4.36823
102
root 1.58163 17.9158 -9.07423 9.5141 -4.95046 -6.59911
lowerback -4.51548 1.27062 -2.55601
upperback 0.929223 1.70681 4.17591
thorax 3.29496 0.760116 5.90797
lowerneck -14.8307 0.616779 1.07631
upperneck 41.2614 3.36861 -6.4673
head 18.0355 0.626596 -2.58387
rclavicle -2.22142e-014 3.97569e-016
rhumerus -27.9359 0.386742 -84.1427
rradius 26.7008
rwrist -7.58521
rhand -19.9426 10.0702
rfingers 7.12502
rthumb 6.39525 -19.8133
lclavicle -2.22142e-014 3.97569e-016
lhumerus -26.7736 -2.39897 90.6449
lradius 24.1204
lwrist 0.308184
lhand -8.60149 32.3717
lfingers 7.12502
lthumb 17.33 61.6191
rfemur -19.1168 -0.790987 23.1378
rtibia 31.8712
rfoot -14.8281 -6.94963
rtoes 0.747904
lfemur -17.0239 3.60243 -16.3947
ltibia 32.6375
lfoot -19.5675 6.36066
ltoes -4.30636
103
root 1.59156 17.9138 -9.07656 9.4707 -4.83832 -6.45294
lowerback -4.42862 1.24104 -2.72148
upperback 1.02896 1.67653 4.10939
thorax 3.35064 0.738943 5.93002
lowerneck -14.838 0.663067 1.18042
upperneck 41.2057 3.45293 -6.58475
head 18.0167 0.661701 -2.63979
rclavicle -1.963e-015 2.76311e-014
rhumerus -27.8247 0.577626 -84.255
rradius 26.7614
rwrist -7.79752
rhand -20.3593 10.2399
rfingers 7.12502
rthumb 5.99292 -19.6553
lclavicle -1.963e-015 2.76311e-014
lhumerus -26.6791 -2.57487 90.6063
lradius 24.1118
lwrist 0.614319
lhand -8.91608 32.2544
lfingers 7.12502
lthumb 17.0272 61.5282
rfemur -19.2599 -0.80002 22.9548
rtibia 32.195
rfoot -14.987 -6.99203
rtoes 2.37942
lfemur -17.0334 3.47261 -16.565
ltibia 32.7194
lfoot -19.7047 6.29159
ltoes -4.19436
